<svg xmlns="http://www.w3.org/2000/svg" xmlns:xlink="http://www.w3.org/1999/xlink" width="287" zoomAndPan="magnify" viewBox="0 0 215.25 198.749995" height="265" preserveAspectRatio="xMidYMid meet" version="1.0"><defs><clipPath id="5c44dc25b9"><path d="M 10 13 L 213.714844 13 L 213.714844 197.980469 L 10 197.980469 Z M 10 13 " clip-rule="nonzero"/></clipPath><clipPath id="4984c0c2a7"><path d="M 0.707031 0.667969 L 207 0.667969 L 207 186 L 0.707031 186 Z M 0.707031 0.667969 " clip-rule="nonzero"/></clipPath><clipPath id="9ddc2fdf65"><path d="M 97.976562 111.265625 L 150.210938 111.265625 L 150.210938 151.625 L 97.976562 151.625 Z M 97.976562 111.265625 " clip-rule="nonzero"/></clipPath><clipPath id="d5428188b7"><path d="M 97.976562 111.265625 L 143 111.265625 L 143 141 L 97.976562 141 Z M 97.976562 111.265625 " clip-rule="nonzero"/></clipPath></defs><g clip-path="url(#5c44dc25b9)"><path fill="#733c20" d="M 11.445312 13.796875 L 213.738281 13.796875 C 213.738281 13.796875 179.882812 56.054688 128.15625 71.1875 C 64.738281 89.738281 26.382812 131.628906 10.691406 197.921875 Z M 11.445312 13.796875 " fill-opacity="1" fill-rule="nonzero"/></g><g clip-path="url(#4984c0c2a7)"><path fill="#733c20" d="M 1.46875 0.738281 L 1.464844 1.609375 L 0.710938 185.734375 L 2.429688 185.941406 C 18.066406 119.878906 56.121094 78.324219 119.289062 59.84375 C 171.335938 44.621094 205.304688 2.160156 205.304688 2.160156 L 206.445312 0.738281 Z M 3.203125 2.488281 L 202.75 2.488281 C 196.988281 9.253906 165.234375 44.582031 118.800781 58.167969 C 57.296875 76.160156 19.199219 116.25 2.480469 178.925781 Z M 3.203125 2.488281 " fill-opacity="1" fill-rule="nonzero"/></g><g clip-path="url(#9ddc2fdf65)"><path fill="#733c20" d="M -52.058594 -32.105469 L 150.230469 -32.105469 C 150.230469 -32.105469 116.375 10.15625 64.648438 25.289062 C 1.230469 43.839844 -37.121094 85.730469 -52.816406 152.023438 Z M -52.058594 -32.105469 " fill-opacity="1" fill-rule="nonzero"/></g><g clip-path="url(#d5428188b7)"><path fill="#733c20" d="M -62.039062 -45.160156 L -62.042969 -44.289062 L -62.796875 139.835938 L -61.078125 140.042969 C -45.441406 73.980469 -7.386719 32.425781 55.78125 13.945312 C 107.828125 -1.28125 141.800781 -43.738281 141.800781 -43.738281 L 142.9375 -45.160156 Z M -60.300781 -43.414062 L 139.242188 -43.414062 C 133.484375 -36.648438 101.730469 -1.316406 55.296875 12.269531 C -6.210938 30.261719 -44.308594 70.351562 -61.023438 133.027344 Z M -60.300781 -43.414062 " fill-opacity="1" fill-rule="nonzero"/></g></svg>