<svg xmlns="http://www.w3.org/2000/svg" xmlns:xlink="http://www.w3.org/1999/xlink" width="664" zoomAndPan="magnify" viewBox="0 0 498 266.250005" height="355" preserveAspectRatio="xMidYMid meet" version="1.0"><defs><g/></defs><g fill="#2d1309" fill-opacity="1"><g transform="translate(35.87531, 172.952565)"><g><path d="M 54.503906 0.648438 C 69.085938 0.648438 80.039062 -1.554688 88.140625 -5.507812 C 96.175781 -9.460938 101.359375 -15.164062 104.535156 -22.164062 C 107.710938 -29.164062 108.945312 -37.460938 108.945312 -46.597656 C 108.945312 -60.144531 104.535156 -72.195312 95.789062 -80.816406 C 86.972656 -89.371094 73.882812 -94.621094 56.511719 -94.621094 C 46.402344 -94.621094 36.746094 -94.167969 27.609375 -93.453125 L 3.371094 -92.804688 L 2.785156 -76.605469 L 8.296875 -76.796875 L 8.296875 -21.320312 C 8.296875 -11.988281 10.109375 -6.804688 14 -3.886719 C 17.886719 -0.972656 23.851562 -0.257812 32.210938 0.0664062 C 32.40625 0 32.988281 0 34.089844 0 C 36.164062 0.0664062 39.273438 0.128906 42.773438 0.257812 L 47.765625 0.453125 C 49.320312 0.519531 50.746094 0.519531 51.976562 0.582031 C 53.207031 0.648438 54.050781 0.648438 54.503906 0.648438 Z M 51.457031 -20.285156 C 50.746094 -20.285156 50.097656 -20.351562 49.449219 -20.414062 C 48.929688 -28.191406 48.542969 -36.683594 48.152344 -45.042969 C 47.765625 -53.402344 47.441406 -61.699219 47.179688 -68.957031 C 48.734375 -69.019531 50.550781 -69.085938 52.558594 -69.085938 C 57.484375 -69.085938 60.984375 -66.816406 63.1875 -62.734375 C 65.390625 -58.585938 66.363281 -52.625 66.363281 -45.367188 C 66.363281 -39.46875 65.910156 -33.3125 64.097656 -28.449219 C 62.214844 -23.589844 58.910156 -20.285156 53.207031 -20.285156 Z M 51.457031 -20.285156 "/></g></g></g><g fill="#2d1309" fill-opacity="1"><g transform="translate(149.160458, 172.952565)"><g><path d="M 50.226562 2.65625 C 65.066406 2.65625 76.472656 0.0664062 85.027344 -4.148438 C 93.585938 -8.359375 99.289062 -14.257812 102.785156 -21 C 106.285156 -27.738281 107.582031 -35.191406 107.324219 -42.710938 C 107.0625 -51.523438 105.636719 -60.207031 102.65625 -66.816406 C 99.675781 -73.429688 95.074219 -78.03125 88.527344 -78.808594 L 95.203125 -83.148438 C 87.363281 -93.195312 74.335938 -98.183594 55.085938 -98.183594 C 39.273438 -98.183594 26.246094 -94.039062 17.175781 -85.9375 C 8.101562 -77.835938 2.917969 -65.78125 2.722656 -50.160156 C 2.527344 -40.117188 3.628906 -30.914062 6.546875 -23.136719 C 9.398438 -15.292969 14.128906 -8.8125 21.191406 -4.34375 C 28.257812 0.128906 37.785156 2.65625 50.226562 2.65625 Z M 55.28125 -18.925781 C 50.679688 -18.925781 47.894531 -21.515625 46.339844 -25.921875 C 44.71875 -30.332031 44.265625 -36.550781 44.265625 -43.617188 C 44.265625 -52.949219 45.625 -59.820312 47.699219 -64.289062 C 49.773438 -68.699219 52.558594 -70.902344 55.410156 -70.902344 C 57.292969 -70.902344 58.78125 -70.707031 59.753906 -70.382812 C 61.699219 -69.667969 62.476562 -68.242188 62.800781 -66.167969 C 62.929688 -65.066406 63.125 -63.835938 63.449219 -62.410156 L 66.300781 -64.226562 C 66.105469 -61.828125 66.300781 -59.105469 66.625 -56.058594 C 66.882812 -52.949219 67.207031 -49.515625 67.402344 -45.625 C 67.464844 -39.144531 66.949219 -32.46875 65.132812 -27.414062 C 63.316406 -22.359375 60.207031 -18.925781 55.28125 -18.925781 Z M 55.28125 -18.925781 "/></g></g></g><g fill="#2d1309" fill-opacity="1"><g transform="translate(261.797521, 172.952565)"><g><path d="M 55.542969 2.980469 C 58.199219 2.980469 62.214844 2.59375 66.429688 1.816406 C 70.578125 1.035156 75.179688 -0.128906 79.132812 -1.683594 C 83.085938 -3.242188 86.585938 -5.121094 88.59375 -7.453125 C 89.046875 -7.972656 89.5 -8.425781 90.085938 -8.8125 C 90.601562 -9.203125 91.121094 -9.785156 91.574219 -10.628906 C 92.546875 -12.183594 93.261719 -14.839844 93.453125 -20.027344 C 93.777344 -22.292969 92.09375 -24.238281 89.953125 -25.597656 C 87.816406 -26.960938 85.027344 -27.804688 83.148438 -28.0625 C 82.046875 -28.257812 81.011719 -28.257812 79.972656 -27.933594 C 77.898438 -27.285156 75.632812 -25.988281 73.105469 -24.367188 C 71.808594 -23.527344 70.382812 -22.746094 68.761719 -21.96875 C 65.585938 -20.414062 61.699219 -19.054688 56.773438 -18.535156 C 51.132812 -17.824219 48.089844 -20.21875 46.402344 -24.238281 C 44.71875 -28.257812 44.394531 -33.832031 44.394531 -39.726562 C 44.394531 -48.867188 45.496094 -56.320312 47.441406 -61.375 C 49.382812 -66.429688 52.234375 -69.085938 56.058594 -68.828125 C 59.363281 -68.566406 60.984375 -67.726562 61.503906 -66.429688 C 61.632812 -65.78125 61.570312 -65.066406 61.246094 -64.226562 C 60.597656 -62.605469 59.234375 -60.597656 57.292969 -58.328125 L 54.179688 -54.570312 L 83.539062 -39.664062 C 90.601562 -41.996094 95.398438 -45.820312 98.378906 -50.484375 C 101.359375 -55.085938 102.59375 -60.335938 102.785156 -65.523438 C 102.980469 -70.640625 102.007812 -75.566406 100.648438 -79.519531 C 99.289062 -83.472656 97.40625 -86.324219 95.789062 -87.363281 C 89.242188 -91.054688 81.917969 -93.453125 74.59375 -94.945312 C 67.273438 -96.4375 59.949219 -96.890625 53.273438 -96.890625 C 34.347656 -96.890625 21.777344 -91.640625 14 -82.5 C 6.15625 -73.363281 3.046875 -60.207031 3.046875 -44.589844 C 3.046875 -34.671875 3.953125 -26.054688 6.804688 -19.054688 C 9.65625 -11.988281 14.453125 -6.546875 22.230469 -2.785156 C 30.007812 0.972656 40.765625 2.980469 55.542969 2.980469 Z M 55.542969 2.980469 "/></g></g></g><g fill="#2d1309" fill-opacity="1"><g transform="translate(366.139105, 172.952565)"><g><path d="M 63.964844 0.519531 C 72.84375 0.714844 79.066406 -0.0664062 83.019531 -3.046875 C 86.972656 -6.027344 88.722656 -11.210938 88.722656 -20.21875 C 88.722656 -23.394531 87.6875 -26.378906 86.390625 -28.515625 C 85.027344 -30.589844 83.410156 -31.886719 82.113281 -31.691406 C 76.472656 -31.171875 70.578125 -30.847656 64.742188 -30.65625 C 58.910156 -30.394531 53.273438 -30.265625 48.414062 -30.265625 C 48.347656 -31.757812 48.28125 -33.183594 48.28125 -34.671875 L 59.300781 -34.542969 C 66.363281 -34.476562 71.289062 -34.671875 74.402344 -36.617188 C 77.511719 -38.5625 78.871094 -42.320312 78.871094 -49.382812 C 78.871094 -51.910156 78.03125 -54.375 76.992188 -56.253906 C 75.957031 -58.070312 74.726562 -59.300781 73.753906 -59.234375 C 72.132812 -59.039062 70.316406 -58.910156 68.308594 -58.847656 C 64.289062 -58.585938 59.6875 -58.328125 54.957031 -58.261719 C 52.558594 -58.199219 50.226562 -58.199219 47.828125 -58.132812 C 47.765625 -59.234375 47.765625 -60.273438 47.765625 -61.308594 L 47.765625 -64.289062 L 66.300781 -63.964844 C 75.179688 -63.773438 81.335938 -64.550781 85.289062 -67.53125 C 89.242188 -70.511719 90.992188 -75.695312 90.992188 -84.707031 C 90.992188 -87.816406 89.953125 -90.863281 88.660156 -93.195312 C 87.363281 -95.464844 85.742188 -96.824219 84.511719 -96.757812 C 79.132812 -96.242188 72.652344 -95.789062 65.910156 -95.464844 C 59.105469 -95.140625 52.105469 -94.945312 45.691406 -94.75 C 38.238281 -94.554688 30.589844 -94.425781 22.878906 -94.363281 L 22.878906 -94.296875 C 21.0625 -94.230469 19.054688 -94.230469 16.851562 -94.230469 C 14.648438 -94.230469 12.574219 -94.230469 10.628906 -94.167969 C 8.359375 -94.101562 6.027344 -94.101562 3.757812 -94.039062 L 3.242188 -77.769531 L 8.554688 -77.964844 L 7.84375 -32.015625 C 7.777344 -24.304688 8.164062 -18.210938 9.589844 -13.546875 C 11.015625 -8.8125 13.480469 -5.378906 17.5 -3.242188 C 21.515625 -1.101562 27.089844 -0.0664062 34.800781 -0.0664062 L 34.867188 -0.0664062 Z M 63.964844 0.519531 "/></g></g></g><g fill="#c63525" fill-opacity="1"><g transform="translate(184.57794, 44.932026)"><g><path d="M 14.777344 1.15625 C 16.390625 1.15625 17.464844 0.699219 18.191406 0.0820312 C 18.917969 -0.539062 19.265625 -1.316406 19.375 -1.933594 C 19.5625 -2.578125 19.695312 -4.515625 19.910156 -6.796875 C 19.992188 -7.953125 20.125 -9.136719 20.261719 -10.398438 C 20.554688 -12.871094 20.90625 -15.046875 21.441406 -16.390625 C 21.710938 -17.0625 22.035156 -17.386719 22.410156 -17.410156 C 22.410156 -17.410156 22.464844 -17.4375 22.570312 -17.464844 C 22.757812 -17.519531 23.027344 -17.4375 23.269531 -17.035156 C 23.402344 -16.847656 23.484375 -16.523438 23.511719 -16.09375 C 23.617188 -14.804688 24.746094 -13.730469 26.277344 -13.113281 C 27.785156 -12.46875 29.773438 -12.253906 31.625 -12.601562 C 33.265625 -12.925781 35.011719 -13.625 36.328125 -15.046875 C 37.644531 -16.445312 38.558594 -18.566406 38.558594 -21.792969 C 38.558594 -25.582031 37.132812 -27.785156 35.121094 -29.046875 C 33.105469 -30.308594 30.550781 -30.632812 28.292969 -30.632812 C 25.3125 -30.632812 23.484375 -29.476562 22.113281 -27.433594 C 20.71875 -25.390625 19.804688 -22.492188 18.621094 -19.078125 C 18.621094 -19.964844 18.675781 -21.121094 18.726562 -22.382812 C 18.78125 -23.644531 18.835938 -24.960938 18.917969 -26.226562 C 18.996094 -27.675781 19.105469 -29.179688 19.238281 -30.710938 L 2.660156 -29.636719 L 2.605469 -0.539062 C 3.761719 -0.5625 4.757812 -0.539062 5.535156 -0.457031 C 7.09375 -0.296875 8.195312 -0.0273438 9.109375 0.269531 L 10.558594 0.671875 C 11.609375 0.941406 12.816406 1.15625 14.777344 1.15625 Z M 14.777344 1.15625 "/></g></g></g><g fill="#c63525" fill-opacity="1"><g transform="translate(223.592346, 44.932026)"><g><path d="M 19.160156 0.886719 L 20.367188 -26.683594 C 20.394531 -27.863281 20.234375 -28.722656 19.882812 -29.261719 C 19.132812 -30.335938 18.003906 -30.605469 16.902344 -30.605469 C 16.335938 -30.578125 15.90625 -30.632812 15.558594 -30.738281 C 15.15625 -30.847656 14.914062 -30.953125 14.859375 -31.089844 C 14.804688 -31.195312 14.777344 -31.277344 14.777344 -31.304688 C 14.777344 -31.332031 14.777344 -31.382812 14.804688 -31.464844 L 14.804688 -31.734375 C 14.804688 -32.269531 15.503906 -32.460938 16.417969 -32.699219 C 17.332031 -32.941406 18.460938 -33.210938 19.375 -33.964844 C 20.285156 -34.714844 20.957031 -35.925781 20.957031 -37.996094 C 20.957031 -40.144531 20.125 -41.648438 18.621094 -42.617188 C 17.089844 -43.582031 14.886719 -44.011719 12.117188 -44.011719 C 6.097656 -44.011719 2.875 -42.1875 2.875 -37.996094 C 2.875 -35.871094 3.65625 -34.6875 4.648438 -33.964844 C 5.644531 -33.210938 6.960938 -32.914062 7.953125 -32.699219 C 8.949219 -32.484375 9.726562 -32.296875 9.726562 -31.734375 L 9.726562 -31.546875 C 9.726562 -31.464844 9.699219 -31.382812 9.671875 -31.304688 C 9.566406 -31.0625 9.457031 -30.925781 9.324219 -30.875 C 9.082031 -30.738281 8.4375 -30.496094 7.683594 -30.496094 C 7.28125 -30.496094 6.90625 -30.496094 6.503906 -30.472656 C 5.695312 -30.417969 4.863281 -30.253906 4.246094 -29.746094 C 3.628906 -29.207031 3.222656 -28.320312 3.222656 -26.734375 L 3.277344 -0.242188 Z M 19.160156 0.886719 "/></g></g></g><g fill="#c63525" fill-opacity="1"><g transform="translate(246.028321, 44.932026)"><g><path d="M 19.132812 0.886719 C 19.105469 -1.585938 19.105469 -4.085938 19.078125 -6.582031 L 19.078125 -9.96875 C 19.050781 -12.332031 19.023438 -14.777344 19.023438 -17.171875 L 19.023438 -20.636719 L 22.8125 -20.636719 C 23.808594 -20.636719 24.910156 -21.148438 25.714844 -21.898438 C 26.519531 -22.652344 27.058594 -23.671875 27.058594 -24.667969 C 27.058594 -25.957031 26.628906 -27.191406 25.984375 -28.050781 C 25.339844 -28.914062 24.53125 -29.449219 23.78125 -29.421875 L 19.050781 -29.234375 C 19.132812 -30.523438 19.320312 -31.789062 19.75 -32.539062 C 20.046875 -32.914062 20.367188 -33.105469 20.769531 -33.128906 C 21.550781 -33.128906 22.464844 -32.753906 23.457031 -32.296875 C 23.96875 -32.054688 24.480469 -31.894531 24.988281 -31.8125 C 26.039062 -31.625 27.085938 -31.839844 28.132812 -33.050781 C 29.878906 -35.121094 30.175781 -36.917969 29.449219 -38.371094 C 28.722656 -39.820312 27.085938 -40.949219 25.042969 -41.78125 C 23 -42.617188 20.554688 -43.101562 18.296875 -43.316406 C 16.042969 -43.53125 13.945312 -43.421875 12.628906 -43.019531 C 9.726562 -42.1875 7.253906 -40.304688 5.480469 -37.832031 C 3.707031 -35.335938 2.660156 -32.164062 2.660156 -28.804688 L 2.660156 -28.589844 L 0.347656 -28.507812 L 0.402344 -20.691406 L 2.929688 -20.691406 C 3.007812 -18.539062 3.089844 -16.203125 3.199219 -13.863281 L 3.359375 -10.398438 C 3.386719 -9.242188 3.4375 -8.167969 3.492188 -7.148438 L 3.816406 0 Z M 19.132812 0.886719 "/></g></g></g><g fill="#c63525" fill-opacity="1"><g transform="translate(273.569487, 44.932026)"><g><path d="M 12.925781 1.234375 C 16.015625 1.234375 17.652344 0.539062 18.753906 -0.804688 C 19.832031 -2.148438 20.367188 -4.191406 21.253906 -6.878906 L 21.308594 -6.609375 C 21.335938 -6.449219 21.363281 -6.261719 21.414062 -6.019531 C 21.496094 -5.5625 21.628906 -4.972656 21.820312 -4.460938 C 22.972656 -0.617188 26.011719 1.15625 31.195312 1.15625 C 32.136719 1.15625 32.996094 1.074219 33.722656 0.886719 C 35.171875 0.539062 36.222656 -0.0273438 36.945312 -0.644531 C 37.671875 -1.261719 38.101562 -1.828125 38.289062 -2.175781 L 38.425781 -2.417969 C 38.449219 -2.363281 38.371094 -2.6875 38.15625 -3.359375 C 37.941406 -4.03125 37.699219 -5.132812 37.429688 -6.691406 C 36.867188 -9.78125 36.273438 -14.699219 36.246094 -21.898438 L 34.527344 -22.140625 C 34.015625 -22.222656 33.425781 -22.328125 32.753906 -22.410156 C 32.082031 -22.492188 31.410156 -22.597656 30.738281 -22.707031 L 32.699219 -25.957031 C 30.523438 -27.164062 28.589844 -28.347656 26.144531 -29.179688 C 23.699219 -30.015625 20.71875 -30.550781 16.417969 -30.550781 C 12.011719 -30.550781 8.382812 -29.34375 5.722656 -26.84375 C 3.0625 -24.34375 1.425781 -20.527344 0.914062 -15.371094 C 0.484375 -10.425781 1.234375 -6.261719 3.222656 -3.359375 C 5.210938 -0.457031 8.4375 1.234375 12.925781 1.234375 Z M 18.539062 -8.707031 C 18.40625 -8.707031 18.273438 -8.839844 18.191406 -9.109375 C 18.082031 -9.378906 18.003906 -9.726562 17.949219 -10.183594 C 17.839844 -11.042969 17.789062 -12.199219 17.789062 -13.355469 C 17.789062 -14.964844 17.816406 -16.308594 17.976562 -17.25 C 18.136719 -18.191406 18.433594 -18.675781 19.050781 -18.648438 C 19.589844 -18.621094 20.097656 -18.324219 20.609375 -17.867188 C 20.582031 -16.066406 20.527344 -13.8125 20.234375 -11.957031 C 19.9375 -10.101562 19.425781 -8.707031 18.539062 -8.707031 Z M 18.539062 -8.707031 "/></g></g></g><g fill="#c63525" fill-opacity="1"><g transform="translate(132.272157, 243.610414)"><g><path d="M 12.925781 1.234375 C 16.015625 1.234375 17.652344 0.539062 18.753906 -0.804688 C 19.832031 -2.148438 20.367188 -4.191406 21.253906 -6.878906 L 21.308594 -6.609375 C 21.335938 -6.449219 21.363281 -6.261719 21.414062 -6.019531 C 21.496094 -5.5625 21.628906 -4.972656 21.820312 -4.460938 C 22.972656 -0.617188 26.011719 1.15625 31.195312 1.15625 C 32.621094 1.15625 33.800781 0.96875 34.742188 0.589844 C 36.597656 -0.160156 37.671875 -1.128906 38.101562 -1.882812 L 38.425781 -2.417969 C 38.101562 -3.601562 37.832031 -5.078125 37.589844 -6.878906 C 37.132812 -10.425781 36.8125 -14.804688 36.625 -19.75 C 36.4375 -24.667969 36.328125 -29.773438 36.300781 -34.742188 C 36.273438 -37.214844 36.273438 -39.578125 36.246094 -41.808594 C 34.769531 -41.59375 33.507812 -41.566406 32.460938 -41.730469 C 30.363281 -42.023438 28.75 -42.617188 27.246094 -43.152344 C 26.492188 -43.394531 25.660156 -43.53125 24.773438 -43.53125 C 23.160156 -43.53125 22.140625 -43.074219 21.496094 -42.453125 C 20.851562 -41.835938 20.582031 -41.058594 20.554688 -40.414062 C 20.339844 -36.625 20.421875 -32.941406 20.527344 -29.503906 C 19.132812 -30.230469 17.707031 -30.550781 16.445312 -30.550781 C 12.011719 -30.550781 8.382812 -29.34375 5.722656 -26.84375 C 3.0625 -24.34375 1.425781 -20.527344 0.914062 -15.371094 C 0.484375 -10.425781 1.261719 -6.261719 3.25 -3.359375 C 5.238281 -0.457031 8.4375 1.234375 12.925781 1.234375 Z M 18.566406 -8.707031 C 18.433594 -8.707031 18.296875 -8.839844 18.21875 -9.109375 C 18.109375 -9.378906 18.03125 -9.726562 17.976562 -10.183594 C 17.839844 -11.042969 17.789062 -12.199219 17.789062 -13.355469 C 17.789062 -14.964844 17.816406 -16.308594 17.976562 -17.25 C 18.136719 -18.191406 18.433594 -18.675781 19.050781 -18.648438 C 19.777344 -18.566406 20.234375 -18.164062 20.636719 -17.410156 C 20.554688 -15.046875 20.421875 -12.871094 20.097656 -11.285156 C 19.777344 -9.699219 19.292969 -8.707031 18.566406 -8.707031 Z M 18.566406 -8.707031 "/></g></g></g><g fill="#c63525" fill-opacity="1"><g transform="translate(172.468817, 243.610414)"><g><path d="M 12.925781 1.234375 C 16.015625 1.234375 17.652344 0.539062 18.753906 -0.804688 C 19.832031 -2.148438 20.367188 -4.191406 21.253906 -6.878906 L 21.308594 -6.609375 C 21.335938 -6.449219 21.363281 -6.261719 21.414062 -6.019531 C 21.496094 -5.5625 21.628906 -4.972656 21.820312 -4.460938 C 22.972656 -0.617188 26.011719 1.15625 31.195312 1.15625 C 32.136719 1.15625 32.996094 1.074219 33.722656 0.886719 C 35.171875 0.539062 36.222656 -0.0273438 36.945312 -0.644531 C 37.671875 -1.261719 38.101562 -1.828125 38.289062 -2.175781 L 38.425781 -2.417969 C 38.449219 -2.363281 38.371094 -2.6875 38.15625 -3.359375 C 37.941406 -4.03125 37.699219 -5.132812 37.429688 -6.691406 C 36.867188 -9.78125 36.273438 -14.699219 36.246094 -21.898438 L 34.527344 -22.140625 C 34.015625 -22.222656 33.425781 -22.328125 32.753906 -22.410156 C 32.082031 -22.492188 31.410156 -22.597656 30.738281 -22.707031 L 32.699219 -25.957031 C 30.523438 -27.164062 28.589844 -28.347656 26.144531 -29.179688 C 23.699219 -30.015625 20.71875 -30.550781 16.417969 -30.550781 C 12.011719 -30.550781 8.382812 -29.34375 5.722656 -26.84375 C 3.0625 -24.34375 1.425781 -20.527344 0.914062 -15.371094 C 0.484375 -10.425781 1.234375 -6.261719 3.222656 -3.359375 C 5.210938 -0.457031 8.4375 1.234375 12.925781 1.234375 Z M 18.539062 -8.707031 C 18.40625 -8.707031 18.273438 -8.839844 18.191406 -9.109375 C 18.082031 -9.378906 18.003906 -9.726562 17.949219 -10.183594 C 17.839844 -11.042969 17.789062 -12.199219 17.789062 -13.355469 C 17.789062 -14.964844 17.816406 -16.308594 17.976562 -17.25 C 18.136719 -18.191406 18.433594 -18.675781 19.050781 -18.648438 C 19.589844 -18.621094 20.097656 -18.324219 20.609375 -17.867188 C 20.582031 -16.066406 20.527344 -13.8125 20.234375 -11.957031 C 19.9375 -10.101562 19.425781 -8.707031 18.539062 -8.707031 Z M 18.539062 -8.707031 "/></g></g></g><g fill="#c63525" fill-opacity="1"><g transform="translate(212.31618, 243.610414)"><g/></g></g><g fill="#c63525" fill-opacity="1"><g transform="translate(226.100201, 243.610414)"><g><path d="M 24.046875 1.074219 C 25.097656 1.074219 26.277344 1.074219 27.460938 0.96875 C 28.644531 0.859375 29.800781 0.699219 30.847656 0.402344 C 37.804688 -1.210938 43.339844 -4.757812 46.59375 -10.453125 C 49.84375 -16.121094 50.839844 -23.96875 48.6875 -34.207031 C 48.527344 -34.929688 48.285156 -35.628906 47.9375 -36.355469 C 47.238281 -37.78125 45.867188 -38.960938 43.636719 -39.632812 C 41.40625 -40.304688 37.832031 -40.0625 35.953125 -40.035156 C 35.011719 -40.007812 34.234375 -39.984375 33.667969 -39.929688 C 32.484375 -39.792969 31.949219 -39.578125 31.761719 -39.097656 C 31.546875 -38.613281 31.679688 -37.886719 31.867188 -36.785156 C 32.539062 -32.164062 32.699219 -27.621094 32.40625 -23.726562 C 32.109375 -19.832031 31.382812 -16.523438 30.390625 -14.375 C 29.394531 -12.226562 28.105469 -11.179688 26.683594 -11.796875 C 26.871094 -12.628906 26.976562 -13.625 27.058594 -14.804688 C 27.164062 -16.847656 27.140625 -19.855469 26.574219 -24.023438 C 26.277344 -25.957031 25.632812 -28.242188 24.800781 -30.445312 C 23.941406 -32.648438 22.921875 -34.769531 22.035156 -36.488281 C 21.148438 -38.210938 20.367188 -39.527344 19.9375 -39.984375 L 13.355469 -39.390625 C 11.714844 -39.257812 10.238281 -39.121094 8.949219 -39.042969 C 6.367188 -38.855469 4.460938 -38.773438 3.089844 -38.71875 C 1.691406 -38.667969 -0.1875 -38.585938 -0.726562 -38.773438 L -0.96875 -32.054688 L 3.171875 -32.21875 C 5.832031 -27.164062 7.792969 -21.710938 9.242188 -16.257812 C 10.695312 -10.800781 11.632812 -5.347656 12.304688 -0.296875 C 13.273438 -0.375 14.160156 -0.429688 14.941406 -0.402344 C 16.523438 -0.347656 17.839844 -0.132812 18.996094 0.160156 L 20.691406 0.5625 C 21.765625 0.832031 22.839844 1.074219 24.046875 1.074219 Z M 24.046875 1.074219 "/></g></g></g><g fill="#c63525" fill-opacity="1"><g transform="translate(277.743236, 243.610414)"><g><path d="M 19.160156 0.886719 L 20.367188 -26.683594 C 20.394531 -27.863281 20.234375 -28.722656 19.882812 -29.261719 C 19.132812 -30.335938 18.003906 -30.605469 16.902344 -30.605469 C 16.335938 -30.578125 15.90625 -30.632812 15.558594 -30.738281 C 15.15625 -30.847656 14.914062 -30.953125 14.859375 -31.089844 C 14.804688 -31.195312 14.777344 -31.277344 14.777344 -31.304688 C 14.777344 -31.332031 14.777344 -31.382812 14.804688 -31.464844 L 14.804688 -31.734375 C 14.804688 -32.269531 15.503906 -32.460938 16.417969 -32.699219 C 17.332031 -32.941406 18.460938 -33.210938 19.375 -33.964844 C 20.285156 -34.714844 20.957031 -35.925781 20.957031 -37.996094 C 20.957031 -40.144531 20.125 -41.648438 18.621094 -42.617188 C 17.089844 -43.582031 14.886719 -44.011719 12.117188 -44.011719 C 6.097656 -44.011719 2.875 -42.1875 2.875 -37.996094 C 2.875 -35.871094 3.65625 -34.6875 4.648438 -33.964844 C 5.644531 -33.210938 6.960938 -32.914062 7.953125 -32.699219 C 8.949219 -32.484375 9.726562 -32.296875 9.726562 -31.734375 L 9.726562 -31.546875 C 9.726562 -31.464844 9.699219 -31.382812 9.671875 -31.304688 C 9.566406 -31.0625 9.457031 -30.925781 9.324219 -30.875 C 9.082031 -30.738281 8.4375 -30.496094 7.683594 -30.496094 C 7.28125 -30.496094 6.90625 -30.496094 6.503906 -30.472656 C 5.695312 -30.417969 4.863281 -30.253906 4.246094 -29.746094 C 3.628906 -29.207031 3.222656 -28.320312 3.222656 -26.734375 L 3.277344 -0.242188 Z M 19.160156 0.886719 "/></g></g></g><g fill="#c63525" fill-opacity="1"><g transform="translate(300.179211, 243.610414)"><g><path d="M 19.160156 0.886719 L 20.367188 -26.683594 C 20.394531 -27.863281 20.234375 -28.722656 19.882812 -29.261719 C 19.132812 -30.335938 18.003906 -30.605469 16.902344 -30.605469 C 16.335938 -30.578125 15.90625 -30.632812 15.558594 -30.738281 C 15.15625 -30.847656 14.914062 -30.953125 14.859375 -31.089844 C 14.804688 -31.195312 14.777344 -31.277344 14.777344 -31.304688 C 14.777344 -31.332031 14.777344 -31.382812 14.804688 -31.464844 L 14.804688 -31.734375 C 14.804688 -32.269531 15.503906 -32.460938 16.417969 -32.699219 C 17.332031 -32.941406 18.460938 -33.210938 19.375 -33.964844 C 20.285156 -34.714844 20.957031 -35.925781 20.957031 -37.996094 C 20.957031 -40.144531 20.125 -41.648438 18.621094 -42.617188 C 17.089844 -43.582031 14.886719 -44.011719 12.117188 -44.011719 C 6.097656 -44.011719 2.875 -42.1875 2.875 -37.996094 C 2.875 -35.871094 3.65625 -34.6875 4.648438 -33.964844 C 5.644531 -33.210938 6.960938 -32.914062 7.953125 -32.699219 C 8.949219 -32.484375 9.726562 -32.296875 9.726562 -31.734375 L 9.726562 -31.546875 C 9.726562 -31.464844 9.699219 -31.382812 9.671875 -31.304688 C 9.566406 -31.0625 9.457031 -30.925781 9.324219 -30.875 C 9.082031 -30.738281 8.4375 -30.496094 7.683594 -30.496094 C 7.28125 -30.496094 6.90625 -30.496094 6.503906 -30.472656 C 5.695312 -30.417969 4.863281 -30.253906 4.246094 -29.746094 C 3.628906 -29.207031 3.222656 -28.320312 3.222656 -26.734375 L 3.277344 -0.242188 Z M 19.160156 0.886719 "/></g></g></g><g fill="#c63525" fill-opacity="1"><g transform="translate(322.615186, 243.610414)"><g><path d="M 15.371094 1.15625 C 16.175781 1.15625 16.847656 1.046875 17.410156 0.832031 C 18.511719 0.429688 19.238281 -0.1875 19.613281 -0.941406 C 19.992188 -1.664062 20.019531 -1.988281 20.207031 -3.199219 C 20.394531 -4.40625 20.636719 -6.097656 20.957031 -8.0625 C 21.253906 -9.996094 21.605469 -11.984375 22.035156 -13.8125 C 22.4375 -15.636719 22.867188 -17.089844 23.402344 -17.949219 C 23.644531 -18.351562 23.914062 -18.566406 24.183594 -18.566406 C 24.53125 -18.566406 24.71875 -18.511719 24.800781 -18.03125 C 24.828125 -17.789062 24.855469 -17.410156 24.828125 -16.953125 L 24.695312 -15.046875 C 24.585938 -13.40625 24.425781 -11.015625 24.289062 -7.550781 C 24.15625 -4.21875 24.640625 -2.070312 25.984375 -0.726562 C 27.328125 0.617188 29.503906 1.128906 32.753906 1.128906 C 34.902344 1.128906 36.917969 0.617188 38.449219 -1.234375 C 39.957031 -3.0625 41.058594 -6.234375 41.460938 -11.5 C 41.703125 -14.941406 41.59375 -18.246094 40.921875 -21.066406 C 40.25 -23.886719 39.042969 -26.277344 37.1875 -27.972656 C 35.335938 -29.664062 32.808594 -30.632812 29.476562 -30.632812 C 26.492188 -30.632812 24.503906 -29.449219 23 -27.40625 C 21.46875 -25.367188 20.394531 -22.492188 19.210938 -19.078125 C 19.210938 -20.90625 19.292969 -23.351562 19.425781 -25.984375 C 19.535156 -28.617188 19.667969 -31.4375 19.855469 -34.042969 C 20.046875 -37.109375 20.285156 -40.277344 20.527344 -43.53125 L 3.25 -42.453125 L 3.199219 -0.539062 C 4.351562 -0.5625 5.347656 -0.539062 6.125 -0.457031 C 7.683594 -0.296875 8.785156 -0.0273438 9.699219 0.269531 L 11.152344 0.671875 C 12.199219 0.941406 13.40625 1.15625 15.371094 1.15625 Z M 15.371094 1.15625 "/></g></g></g></svg>